<svg width="123" height="189" viewBox="0 0 123 189" fill="none" xmlns="http://www.w3.org/2000/svg">
<path d="M10.1522 39.8478C9.6944 45.0807 10.2718 50.3525 11.8513 55.3622C13.4309 60.372 15.9817 65.0216 19.3582 69.0455C22.7347 73.0694 26.8707 76.3889 31.5301 78.8144C36.1894 81.2399 41.2809 82.724 46.5138 83.1818C51.7467 83.6396 57.0185 83.0622 62.0282 81.4827C67.038 79.9031 71.6876 77.3523 75.7115 73.9758C79.7354 70.5993 83.0549 66.4633 85.4804 61.8039C87.9059 57.1446 89.39 52.0531 89.8478 46.8202L50 43.334L10.1522 39.8478Z" fill="white"/>
<path d="M38.9711 165.776C31.2634 161.326 25.0483 154.69 21.1119 146.708C17.1754 138.726 15.6944 129.755 16.8561 120.931C18.0178 112.107 21.7701 103.826 27.6384 97.1346C33.5066 90.4431 41.2274 85.642 49.8243 83.3385C58.4212 81.0349 67.5081 81.3324 75.9359 84.1933C84.3638 87.0541 91.754 92.3499 97.172 99.4109C102.59 106.472 105.793 114.981 106.375 123.862C106.957 132.743 104.892 141.597 100.442 149.305L85.5202 140.69C88.2664 135.933 89.5404 130.469 89.1812 124.989C88.822 119.508 86.8457 114.257 83.5022 109.9C80.1587 105.543 75.5982 102.275 70.3974 100.509C65.1965 98.7439 59.589 98.5604 54.2839 99.9819C48.9787 101.403 44.2143 104.366 40.5929 108.495C36.9716 112.625 34.6561 117.735 33.9392 123.18C33.2223 128.626 34.1363 134.161 36.5655 139.087C38.9946 144.013 42.8299 148.108 47.5864 150.854L38.9711 165.776Z" fill="#5D9F60"/>
</svg>
