<svg width="123" height="189" viewBox="0 0 123 189" fill="none" xmlns="http://www.w3.org/2000/svg">
<path d="M10.1522 40.5138C9.69439 45.7467 10.2717 51.0185 11.8513 56.0282C13.4309 61.038 15.9817 65.6876 19.3582 69.7115C22.7347 73.7355 26.8707 77.0549 31.5301 79.4804C36.1894 81.906 41.2809 83.39 46.5138 83.8478C51.7467 84.3056 57.0185 83.7283 62.0282 82.1487C67.038 80.5691 71.6876 78.0183 75.7115 74.6418C79.7354 71.2653 83.0549 67.1293 85.4804 62.47C87.9059 57.8106 89.39 52.7191 89.8478 47.4862L50 44L10.1522 40.5138Z" fill="#3D8C40"/>
<path d="M38.9711 166.442C31.2634 161.992 25.0483 155.356 21.1119 147.374C17.1754 139.392 15.6944 130.421 16.8561 121.597C18.0178 112.773 21.7701 104.492 27.6384 97.8006C33.5066 91.1091 41.2274 86.308 49.8243 84.0045C58.4212 81.701 67.5081 81.9984 75.9359 84.8593C84.3637 87.7201 91.754 93.0159 97.172 100.077C102.59 107.138 105.793 115.647 106.375 124.528C106.957 133.409 104.892 142.263 100.442 149.971L85.5202 141.356C88.2664 136.599 89.5404 131.135 89.1812 125.655C88.822 120.174 86.8456 114.923 83.5022 110.566C80.1587 106.209 75.5982 102.941 70.3974 101.175C65.1965 99.4099 59.589 99.2264 54.2839 100.648C48.9787 102.069 44.2143 105.032 40.5929 109.161C36.9716 113.291 34.6561 118.401 33.9392 123.846C33.2223 129.292 34.1363 134.827 36.5654 139.753C38.9946 144.679 42.8299 148.774 47.5864 151.52L38.9711 166.442Z" fill="#D8E8D9"/>
</svg>
