<svg width="491" height="447" viewBox="0 0 491 447" fill="none" xmlns="http://www.w3.org/2000/svg">
<rect y="226.274" width="320" height="78" transform="rotate(-45 0 226.274)" fill="white"/>
<path d="M333.015 418.278C303.909 423.41 273.95 420.38 246.461 409.524C218.972 398.668 195.027 380.41 177.282 356.775C159.536 333.14 148.684 305.052 145.928 275.626C143.173 246.2 148.622 216.585 161.67 190.067C174.719 163.548 194.858 141.162 219.854 125.391C244.849 109.62 273.725 101.081 303.278 100.72C332.831 100.359 361.906 108.191 387.279 123.347C412.653 138.503 433.332 160.39 447.025 186.582L388.785 217.029C380.716 201.595 368.531 188.697 353.579 179.767C338.628 170.836 321.495 166.221 304.08 166.433C286.666 166.646 269.651 171.678 254.922 180.971C240.193 190.264 228.326 203.456 220.636 219.082C212.947 234.708 209.736 252.159 211.36 269.499C212.984 286.839 219.379 303.39 229.836 317.317C240.292 331.244 254.402 342.003 270.6 348.4C286.799 354.797 304.452 356.582 321.603 353.558L333.015 418.278Z" fill="#5D9F60"/>
</svg>
