<svg width="491" height="447" viewBox="0 0 491 447" fill="none" xmlns="http://www.w3.org/2000/svg">
<rect y="226.919" width="320" height="78" transform="rotate(-45 0 226.919)" fill="#D8E8D9"/>
<path d="M333.015 418.922C303.909 424.054 273.95 421.024 246.461 410.168C218.972 399.312 195.027 381.055 177.282 357.42C159.536 333.785 148.684 305.697 145.928 276.271C143.173 246.844 148.622 217.23 161.67 190.711C174.719 164.193 194.858 141.807 219.854 126.036C244.849 110.265 273.725 101.726 303.278 101.365C332.831 101.004 361.906 108.836 387.279 123.992C412.653 139.147 433.332 161.035 447.025 187.227L388.785 217.673C380.716 202.239 368.531 189.342 353.579 180.411C338.628 171.48 321.495 166.865 304.08 167.078C286.666 167.291 269.651 172.323 254.922 181.616C240.193 190.909 228.326 204.1 220.636 219.727C212.947 235.353 209.736 252.804 211.36 270.143C212.984 287.483 219.379 304.034 229.836 317.961C240.292 331.889 254.402 342.647 270.6 349.044C286.799 355.441 304.452 357.227 321.603 354.202L333.015 418.922Z" fill="#3D8C40"/>
</svg>
